<?xml version="1.0" standalone="no"?>
<!DOCTYPE svg PUBLIC "-//W3C//DTD SVG 20010904//EN"
 "http://www.w3.org/TR/2001/REC-SVG-20010904/DTD/svg10.dtd">
<svg version="1.0" xmlns="http://www.w3.org/2000/svg"
 width="543.000000pt" height="181.000000pt" viewBox="0 0 543.000000 181.000000"
 preserveAspectRatio="xMidYMid meet">

<g transform="translate(0.000000,181.000000) scale(0.100000,-0.100000)"
fill="#000000" stroke="none">
<path d="M4538 1754 c-3 -5 -11 -33 -18 -62 -14 -60 -24 -70 -49 -48 -10 9
-21 13 -26 9 -4 -5 -5 -2 -1 5 8 13 -19 52 -36 52 -9 0 -4 -187 4 -196 3 -2
27 6 54 18 68 31 192 31 249 1 79 -42 116 -108 117 -213 1 -76 -14 -128 -53
-187 -16 -24 -27 -43 -25 -43 1 0 35 11 75 25 41 13 96 28 123 31 l50 7 -30
12 c-43 19 -49 35 -21 56 l24 19 -22 0 c-27 0 -29 9 -8 36 20 27 18 36 -7 34
-60 -5 -61 4 -12 71 20 27 34 53 32 58 -1 5 -23 1 -47 -11 -73 -33 -72 -13 3
115 33 56 23 61 -54 22 -85 -43 -94 -33 -48 58 10 21 23 49 28 63 11 28 21 32
-104 -40 -90 -51 -106 -50 -124 11 -13 42 -66 112 -74 97z"/>
<path d="M2646 1544 c-11 -23 -14 -40 -8 -46 6 -6 13 -5 17 3 5 8 4 10 -3 5
-15 -9 -15 -3 -1 28 7 14 16 23 20 20 5 -3 6 2 3 10 -8 21 -8 21 -28 -20z"/>
<path d="M650 1555 c-8 -9 -8 -15 -2 -15 12 0 26 19 19 26 -2 2 -10 -2 -17
-11z"/>
<path d="M710 1551 c-7 -11 -16 -18 -19 -16 -3 2 -6 -19 -6 -46 0 -27 3 -49 8
-49 4 0 7 19 7 42 0 29 7 49 22 65 12 13 17 23 12 23 -5 0 -16 -9 -24 -19z"/>
<path d="M960 1564 c0 -1 6 -7 14 -13 10 -8 16 -8 25 3 10 11 7 14 -14 12 -14
0 -25 -2 -25 -2z"/>
<path d="M1055 1559 c7 -11 35 -12 35 -1 0 4 -9 8 -20 9 -11 1 -18 -2 -15 -8z"/>
<path d="M1125 1560 c-3 -5 -2 -10 4 -10 5 0 13 5 16 10 3 6 2 10 -4 10 -5 0
-13 -4 -16 -10z"/>
<path d="M1764 1562 c3 -6 -2 -13 -11 -15 -16 -4 -16 -5 -1 -6 21 -1 32 15 17
25 -7 4 -9 3 -5 -4z"/>
<path d="M2025 1562 c2 -3 19 -6 37 -8 18 -2 41 -7 52 -10 16 -5 17 -4 6 7 -7
8 -32 14 -56 15 -24 0 -42 -2 -39 -4z"/>
<path d="M2185 1556 c-18 -13 -18 -14 8 -9 15 3 27 9 27 14 0 13 -13 11 -35
-5z"/>
<path d="M2230 1555 c0 -8 9 -15 20 -15 11 0 20 -6 20 -12 0 -7 5 -5 11 5 8
14 8 22 -1 30 -8 9 -10 8 -5 -5 5 -13 2 -15 -15 -11 -16 4 -18 8 -8 14 10 7 9
9 -4 9 -10 0 -18 -7 -18 -15z"/>
<path d="M3050 1560 c39 -28 47 -29 63 -12 14 16 12 17 -31 20 -35 2 -43 0
-32 -8z m50 -10 c0 -5 -7 -7 -15 -4 -8 4 -15 8 -15 10 0 2 7 4 15 4 8 0 15 -4
15 -10z"/>
<path d="M3170 1560 c0 -6 5 -8 10 -5 6 4 16 2 23 -3 7 -5 21 -6 32 -1 14 5
15 8 5 9 -8 1 -27 4 -42 6 -16 3 -28 0 -28 -6z"/>
<path d="M3580 1566 c0 -2 7 -9 15 -16 12 -10 15 -10 15 4 0 9 -7 16 -15 16
-8 0 -15 -2 -15 -4z"/>
<path d="M3640 1554 c0 -8 5 -12 10 -9 6 3 10 10 10 16 0 5 -4 9 -10 9 -5 0
-10 -7 -10 -16z"/>
<path d="M3670 1559 c0 -5 5 -7 10 -4 6 3 10 8 10 11 0 2 -4 4 -10 4 -5 0 -10
-5 -10 -11z"/>
<path d="M380 1545 c6 -8 9 -23 5 -36 -5 -14 -4 -19 4 -15 6 4 11 2 11 -5 0
-7 2 -10 5 -8 8 9 -16 79 -27 79 -7 0 -6 -5 2 -15z"/>
<path d="M1021 1544 c0 -11 3 -14 6 -6 3 7 2 16 -1 19 -3 4 -6 -2 -5 -13z"/>
<path d="M1450 1556 c0 -2 8 -10 18 -17 15 -13 16 -12 3 4 -13 16 -21 21 -21
13z"/>
<path d="M3256 1543 c-6 -14 -5 -15 5 -6 7 7 10 15 7 18 -3 3 -9 -2 -12 -12z"/>
<path d="M1495 1542 c3 -3 0 -10 -5 -17 -7 -8 -5 -12 5 -12 8 0 13 3 10 5 -3
3 0 10 5 17 7 8 5 12 -5 12 -8 0 -13 -3 -10 -5z"/>
<path d="M3115 1530 c-10 -11 -15 -23 -12 -27 4 -3 7 -1 7 6 0 7 4 10 9 7 5
-3 11 3 14 14 6 25 5 25 -18 0z"/>
<path d="M4288 1520 c3 -18 0 -30 -7 -30 -8 0 -9 -5 -1 -19 15 -29 -22 -51
-85 -51 -59 0 -89 -14 -65 -30 8 -5 21 -10 28 -10 7 0 27 -7 44 -16 41 -21 23
-39 -41 -40 -51 -1 -122 -30 -129 -51 -3 -10 13 -13 56 -13 87 0 152 -11 152
-25 0 -7 -12 -16 -27 -21 -27 -7 -27 -8 12 -14 22 -3 50 -10 62 -14 21 -7 21
-6 7 40 -29 99 -8 185 61 241 l37 31 -44 26 c-57 33 -66 33 -60 -4z"/>
<path d="M990 1519 c0 -5 5 -7 10 -4 6 3 10 8 10 11 0 2 -4 4 -10 4 -5 0 -10
-5 -10 -11z"/>
<path d="M1205 1520 c3 -5 8 -10 11 -10 2 0 4 5 4 10 0 6 -5 10 -11 10 -5 0
-7 -4 -4 -10z"/>
<path d="M1746 1512 c-8 -23 -4 -162 3 -167 4 -2 6 39 6 91 0 52 -1 94 -2 94
-1 0 -4 -8 -7 -18z"/>
<path d="M1990 1515 c0 -8 2 -15 4 -15 2 0 6 7 10 15 3 8 1 15 -4 15 -6 0 -10
-7 -10 -15z"/>
<path d="M2680 1511 c7 -14 6 -22 -5 -31 -8 -7 -15 -18 -15 -24 0 -6 8 -2 16
9 8 11 19 19 24 18 14 -4 -1 35 -16 41 -11 4 -12 1 -4 -13z"/>
<path d="M3612 1510 c0 -14 2 -19 5 -12 2 6 2 18 0 25 -3 6 -5 1 -5 -13z"/>
<path d="M3254 1507 c3 -10 6 -22 6 -25 0 -4 4 -1 9 7 8 12 12 12 24 2 20 -16
35 5 17 22 -10 9 -11 9 -6 0 9 -16 -34 -13 -47 2 -5 6 -6 2 -3 -8z"/>
<path d="M3650 1511 c0 -6 4 -13 10 -16 6 -3 7 1 4 9 -7 18 -14 21 -14 7z"/>
<path d="M2164 1415 c0 -55 1 -76 3 -47 2 29 2 74 0 100 -2 26 -3 2 -3 -53z"/>
<path d="M336 1488 c3 -5 10 -6 15 -3 13 9 11 12 -6 12 -8 0 -12 -4 -9 -9z"/>
<path d="M1480 1486 c0 -10 5 -14 10 -11 13 8 13 -1 0 -25 -7 -12 -7 -26 0
-42 l11 -23 -5 24 c-3 13 0 33 5 43 9 16 13 17 27 6 15 -11 15 -11 5 3 -7 9
-9 20 -5 24 4 5 1 5 -6 1 -7 -4 -19 -2 -27 4 -12 10 -15 9 -15 -4z"/>
<path d="M1023 1475 c-3 -9 -3 -18 -1 -21 3 -3 8 4 11 16 6 23 -1 27 -10 5z"/>
<path d="M3083 1450 c0 -25 2 -35 4 -22 2 12 2 32 0 45 -2 12 -4 2 -4 -23z"/>
<path d="M2630 1460 c-6 -11 -16 -17 -22 -14 -7 5 -9 2 -5 -9 3 -8 -1 -21 -9
-28 -8 -7 -13 -18 -10 -26 3 -7 1 -13 -4 -13 -6 0 -10 -5 -10 -12 0 -6 8 -4
19 6 11 10 17 25 14 34 -4 10 -2 13 5 8 7 -4 12 -1 12 9 0 9 7 27 16 40 9 14
14 25 11 25 -4 0 -11 -9 -17 -20z"/>
<path d="M615 1461 c3 -6 -2 -14 -11 -19 -12 -7 -13 -11 -5 -17 15 -8 16 -7
25 23 5 14 3 22 -4 22 -6 0 -9 -4 -5 -9z"/>
<path d="M1573 1449 c7 -11 14 -14 18 -7 4 7 8 6 12 -3 3 -9 6 -10 6 -2 1 12
-16 26 -36 29 -9 2 -9 -2 0 -17z"/>
<path d="M2700 1460 c-9 -6 -10 -10 -3 -10 6 0 15 5 18 10 8 12 4 12 -15 0z"/>
<path d="M3299 1457 c12 -15 10 -21 -15 -43 -20 -17 -22 -23 -8 -16 11 6 27
18 34 27 11 14 10 19 -5 33 -18 16 -18 16 -6 -1z"/>
<path d="M351 1444 c0 -11 3 -14 6 -6 3 7 2 16 -1 19 -3 4 -6 -2 -5 -13z"/>
<path d="M381 1444 c-1 -6 6 -17 14 -24 12 -10 15 -9 15 4 0 10 -4 15 -9 12
-5 -4 -12 0 -14 6 -4 8 -6 9 -6 2z"/>
<path d="M2710 1428 c-12 -22 -12 -22 6 -6 10 10 15 20 12 24 -4 3 -12 -5 -18
-18z"/>
<path d="M334 1416 c3 -16 8 -31 11 -35 3 -3 4 7 1 23 -3 16 -8 31 -11 35 -3
3 -4 -7 -1 -23z"/>
<path d="M1556 1427 c3 -10 9 -15 12 -12 3 3 0 11 -7 18 -10 9 -11 8 -5 -6z"/>
<path d="M704 1335 c0 -55 1 -76 3 -47 2 29 2 74 0 100 -2 26 -3 2 -3 -53z"/>
<path d="M3110 1420 c0 -5 5 -10 10 -10 6 0 10 5 10 10 0 6 -4 10 -10 10 -5 0
-10 -4 -10 -10z"/>
<path d="M433 1414 c4 -4 2 -13 -4 -21 -7 -8 -8 -13 -1 -13 5 0 15 6 21 14 9
11 8 15 -6 20 -10 4 -14 4 -10 0z"/>
<path d="M577 1400 c-3 -14 -2 -29 4 -35 7 -7 8 -4 3 9 -5 13 -4 17 3 13 6 -4
14 0 17 9 3 8 2 13 -3 9 -5 -3 -11 0 -13 7 -3 7 -7 1 -11 -12z"/>
<path d="M664 1406 c-3 -8 -4 -29 -1 -48 3 -30 4 -30 5 9 1 23 8 44 15 46 9 4
9 6 -1 6 -7 1 -15 -5 -18 -13z"/>
<path d="M1626 1405 c11 -8 14 -15 7 -15 -7 0 -13 -8 -13 -17 0 -15 -2 -14
-16 3 -14 18 -15 18 -4 -3 6 -13 16 -22 23 -20 7 1 11 -4 9 -11 -1 -8 2 -11 8
-7 6 4 9 10 6 13 -3 3 -1 11 5 19 9 10 8 18 -6 33 -10 11 -23 20 -28 20 -6 0
-2 -7 9 -15z m16 -37 c-7 -7 -12 -8 -12 -2 0 6 3 14 7 17 3 4 9 5 12 2 2 -3
-1 -11 -7 -17z"/>
<path d="M2680 1411 c0 -6 4 -13 10 -16 6 -3 7 1 4 9 -7 18 -14 21 -14 7z"/>
<path d="M1156 1401 c-9 -14 5 -42 18 -38 6 2 13 12 14 22 3 11 0 15 -7 10 -6
-3 -8 -11 -5 -17 5 -7 2 -8 -5 -4 -7 5 -10 14 -7 22 6 16 0 19 -8 5z"/>
<path d="M1040 1396 c0 -2 7 -6 15 -10 8 -3 15 -1 15 4 0 6 -7 10 -15 10 -8 0
-15 -2 -15 -4z"/>
<path d="M1100 1385 c0 -8 4 -15 10 -15 5 0 7 7 4 15 -4 8 -8 15 -10 15 -2 0
-4 -7 -4 -15z"/>
<path d="M2737 1394 c-3 -5 1 -15 9 -22 16 -14 18 -5 5 17 -5 7 -11 9 -14 5z"/>
<path d="M4475 1388 c-73 -40 -107 -121 -85 -206 24 -99 79 -120 196 -76 42
16 86 39 99 52 65 64 26 196 -68 231 -36 14 -116 14 -142 -1z"/>
<path d="M456 1382 c-2 -4 -1 -14 3 -21 6 -9 11 -10 15 -2 4 6 2 11 -4 11 -6
0 -8 5 -5 10 3 6 4 10 1 10 -3 0 -7 -4 -10 -8z"/>
<path d="M3188 1376 c-13 -10 -15 -15 -6 -24 7 -7 17 -12 23 -12 5 0 4 4 -4 9
-12 8 -12 12 -2 25 16 19 12 20 -11 2z"/>
<path d="M3135 1370 c-3 -6 1 -7 9 -4 18 7 21 14 7 14 -6 0 -13 -4 -16 -10z"/>
<path d="M425 1360 c-3 -5 -1 -10 4 -10 6 0 11 5 11 10 0 6 -2 10 -4 10 -3 0
-8 -4 -11 -10z"/>
<path d="M1486 1339 c-9 -47 -7 -89 4 -89 6 0 10 27 10 60 0 67 -4 76 -14 29z"/>
<path d="M2711 1353 c-16 -17 -11 -25 8 -14 7 5 12 13 10 19 -2 6 -10 4 -18
-5z"/>
<path d="M3218 1363 c6 -2 10 -8 8 -12 -3 -4 1 -8 8 -8 8 0 12 6 9 14 -3 7
-13 13 -22 12 -10 0 -11 -2 -3 -6z"/>
<path d="M551 1346 c-7 -8 -10 -19 -7 -25 4 -5 -1 -16 -9 -25 -8 -8 -11 -17
-6 -20 5 -3 14 1 21 9 7 8 9 15 5 15 -5 0 0 9 10 20 13 14 15 24 8 31 -7 7
-14 5 -22 -5z m19 -10 c0 -3 -4 -8 -10 -11 -5 -3 -10 -1 -10 4 0 6 5 11 10 11
6 0 10 -2 10 -4z"/>
<path d="M336 1325 c8 -37 14 -45 14 -19 0 10 -5 26 -10 34 -8 11 -9 7 -4 -15z"/>
<path d="M1022 1330 c0 -14 2 -19 5 -12 2 6 2 18 0 25 -3 6 -5 1 -5 -13z"/>
<path d="M1181 1334 c0 -11 3 -14 6 -6 3 7 2 16 -1 19 -3 4 -6 -2 -5 -13z"/>
<path d="M449 1323 c-13 -16 -12 -17 4 -4 9 7 17 15 17 17 0 8 -8 3 -21 -13z"/>
<path d="M2625 1330 c4 -6 11 -8 16 -5 14 9 11 15 -7 15 -8 0 -12 -5 -9 -10z"/>
<path d="M2670 1330 c-13 -8 -12 -10 3 -10 9 0 17 5 17 10 0 12 -1 12 -20 0z"/>
<path d="M3623 1305 c0 -22 2 -30 4 -17 2 12 2 30 0 40 -3 9 -5 -1 -4 -23z"/>
<path d="M1661 1319 c0 -8 6 -24 15 -35 8 -10 13 -14 10 -8 -7 15 18 36 30 26
4 -4 2 1 -5 11 -14 17 -27 24 -17 8 3 -5 -1 -11 -8 -14 -9 -4 -17 1 -19 11 -4
14 -5 14 -6 1z"/>
<path d="M1746 1315 c-9 -26 -7 -32 5 -12 6 10 9 21 6 23 -2 3 -7 -2 -11 -11z"/>
<path d="M3214 1315 c9 -7 16 -17 16 -23 0 -6 7 -15 16 -20 9 -5 15 -12 15
-16 -1 -3 6 -17 14 -30 16 -24 55 -42 55 -25 0 5 -10 9 -21 9 -18 0 -19 3 -10
14 11 13 15 12 31 -1 11 -9 17 -20 14 -25 -3 -4 2 -8 10 -8 22 0 21 3 -20 44
-20 20 -34 30 -31 21 8 -19 -10 -30 -27 -16 -18 15 -14 57 4 53 10 -3 9 2 -4
17 -21 23 -35 29 -17 7 8 -10 8 -16 -3 -25 -11 -9 -15 -7 -20 12 -3 13 -13 24
-22 24 -15 0 -15 -1 0 -12z"/>
<path d="M2550 1308 c0 -4 4 -8 9 -8 6 0 12 4 15 8 3 5 -1 9 -9 9 -8 0 -15 -4
-15 -9z"/>
<path d="M2775 1299 c-4 -6 -5 -12 -2 -15 2 -3 7 2 10 11 7 17 1 20 -8 4z"/>
<path d="M461 1284 c0 -11 3 -14 6 -6 3 7 2 16 -1 19 -3 4 -6 -2 -5 -13z"/>
<path d="M662 1280 c0 -14 2 -19 5 -12 2 6 2 18 0 25 -3 6 -5 1 -5 -13z"/>
<path d="M2539 1271 c-19 -24 -21 -38 -9 -61 11 -21 30 -27 30 -9 0 5 -4 8 -9
5 -16 -10 -20 21 -5 49 17 33 14 42 -7 16z"/>
<path d="M480 1260 c-12 -8 -12 -11 3 -28 9 -10 14 -22 10 -27 -5 -4 2 -2 15
4 26 14 29 23 5 19 -13 -2 -18 3 -17 20 1 12 1 22 0 22 0 0 -8 -4 -16 -10z"/>
<path d="M510 1261 c0 -6 4 -13 10 -16 6 -3 7 1 4 9 -7 18 -14 21 -14 7z"/>
<path d="M1730 1263 c0 -6 -10 -9 -22 -6 -21 4 -21 3 -5 -7 20 -12 48 2 34 17
-4 3 -7 2 -7 -4z"/>
<path d="M2750 1261 c0 -6 4 -13 10 -16 6 -3 7 1 4 9 -7 18 -14 21 -14 7z"/>
<path d="M1016 1252 c-3 -5 1 -9 9 -9 8 0 12 4 9 9 -3 4 -7 8 -9 8 -2 0 -6 -4
-9 -8z"/>
<path d="M1203 1232 c-19 -24 -27 -27 -78 -25 -31 2 -63 -1 -70 -5 -8 -4 27
-8 77 -9 79 -2 88 0 78 13 -11 12 -10 13 4 8 12 -5 15 -2 9 12 -4 12 -3 15 5
10 8 -5 10 -2 6 8 -7 19 -4 20 -31 -12z"/>
<path d="M336 1235 c4 -8 10 -15 15 -15 4 0 6 7 3 15 -4 8 -10 15 -15 15 -4 0
-6 -7 -3 -15z"/>
<path d="M3067 1215 l-18 -25 60 2 c53 2 57 4 41 15 -10 7 -23 13 -27 12 -20
-3 -34 2 -28 11 13 21 -11 8 -28 -15z"/>
<path d="M1728 1221 c8 -4 13 -11 13 -15 -3 -18 0 -20 9 -6 9 15 -3 30 -25 30
-5 0 -4 -4 3 -9z"/>
<path d="M2803 1223 c9 -2 15 -8 12 -13 -3 -5 -12 -7 -19 -4 -8 3 -16 2 -19
-3 -3 -4 6 -9 19 -9 13 -1 24 3 24 10 0 6 5 4 10 -4 8 -13 11 -13 22 -1 7 8 8
11 2 8 -7 -4 -17 0 -24 8 -7 8 -20 14 -29 14 -13 -1 -13 -2 2 -6z"/>
<path d="M3595 1210 c-10 -11 -13 -20 -7 -20 6 0 16 9 22 20 6 11 9 20 7 20
-2 0 -12 -9 -22 -20z"/>
<path d="M315 1210 c-3 -6 0 -12 7 -14 21 -7 48 -3 48 6 0 5 -12 5 -26 2 -19
-5 -25 -4 -20 5 4 6 5 11 2 11 -3 0 -8 -5 -11 -10z"/>
<path d="M1465 1209 c-11 -16 -1 -19 13 -3 7 8 8 14 3 14 -5 0 -13 -5 -16 -11z"/>
<path d="M1492 1204 c-10 -11 -8 -13 13 -12 27 3 33 13 12 21 -6 2 -18 -2 -25
-9z"/>
<path d="M2100 1205 c-7 -8 -9 -15 -6 -15 4 0 14 7 22 15 9 8 11 15 6 15 -5 0
-15 -7 -22 -15z"/>
<path d="M2132 1205 c-11 -12 -10 -15 3 -15 8 0 15 7 15 15 0 18 -2 18 -18 0z"/>
<path d="M625 1200 c-19 -8 -19 -9 3 -9 12 -1 22 4 22 9 0 6 -1 10 -2 9 -2 0
-12 -4 -23 -9z"/>
<path d="M680 1199 c0 -5 5 -7 10 -4 6 3 10 8 10 11 0 2 -4 4 -10 4 -5 0 -10
-5 -10 -11z"/>
<path d="M710 1202 c0 -5 7 -9 15 -9 8 0 12 4 9 9 -3 4 -9 8 -15 8 -5 0 -9 -4
-9 -8z"/>
<path d="M960 1200 c-9 -6 -10 -10 -3 -10 6 0 15 5 18 10 8 12 4 12 -15 0z"/>
<path d="M2170 1199 c0 -5 5 -7 10 -4 6 3 10 8 10 11 0 2 -4 4 -10 4 -5 0 -10
-5 -10 -11z"/>
<path d="M3620 1200 c0 -5 5 -10 11 -10 5 0 7 5 4 10 -3 6 -8 10 -11 10 -2 0
-4 -4 -4 -10z"/>
<path d="M3670 1200 c0 -5 5 -10 11 -10 5 0 7 5 4 10 -3 6 -8 10 -11 10 -2 0
-4 -4 -4 -10z"/>
<path d="M4245 1059 c-38 -5 -128 -16 -200 -24 -71 -8 -148 -19 -170 -26 l-40
-12 30 -6 c17 -4 159 -5 318 -3 l287 4 0 27 c0 15 -5 32 -12 39 -14 14 -108
14 -213 1z"/>
<path d="M5085 1042 c-16 -2 -118 -19 -226 -38 -122 -21 -228 -34 -282 -34
-67 0 -87 -3 -87 -14 0 -16 70 -26 190 -26 141 0 536 79 556 111 5 9 -71 10
-151 1z"/>
<path d="M1436 1021 c-4 -6 -14 -7 -24 -4 -14 5 -15 3 -5 -7 9 -10 16 -10 25
-2 16 13 66 -6 97 -37 22 -22 25 -22 15 3 -3 9 -12 16 -20 16 -8 0 -14 7 -14
15 0 8 -9 15 -19 15 -11 0 -26 3 -34 6 -8 3 -18 1 -21 -5z"/>
<path d="M1823 1000 c28 -22 72 -37 63 -21 -4 6 -16 11 -26 11 -10 0 -21 4
-24 8 -3 5 10 9 29 9 19 0 32 -4 30 -8 -3 -4 4 -5 15 -2 39 10 8 24 -50 22
-58 -2 -58 -2 -37 -19z"/>
<path d="M1955 1010 c-16 -6 -12 -8 18 -12 20 -2 37 0 37 5 0 5 6 4 13 -2 10
-8 14 -7 14 4 0 15 -45 18 -82 5z"/>
<path d="M2300 1015 c0 -2 7 -8 15 -15 12 -10 15 -10 15 2 0 8 -7 15 -15 15
-8 0 -15 -1 -15 -2z"/>
<path d="M2384 1011 c4 -5 0 -11 -6 -14 -7 -2 -10 -7 -7 -11 3 -3 14 3 24 14
17 18 17 20 1 20 -9 0 -15 -4 -12 -9z"/>
<path d="M2520 1013 c8 -3 21 -10 28 -16 9 -7 11 -6 6 7 -3 9 -16 16 -28 15
-14 0 -16 -2 -6 -6z"/>
<path d="M2568 1013 c6 -2 9 -10 6 -15 -4 -7 -2 -8 4 -4 18 11 14 26 -5 25
-11 0 -13 -3 -5 -6z"/>
<path d="M3447 1013 c7 -2 15 -4 19 -3 4 1 10 -4 14 -11 6 -9 12 -8 25 4 15
16 14 17 -27 16 -24 0 -37 -3 -31 -6z"/>
<path d="M3595 1010 c-3 -5 0 -10 7 -10 7 0 24 -3 38 -6 l25 -5 -25 15 c-30
18 -37 19 -45 6z"/>
<path d="M3688 1014 c-6 -5 7 -62 16 -71 3 -3 4 9 4 26 -1 17 -5 31 -10 31 -5
0 -6 5 -3 10 7 11 2 14 -7 4z"/>
<path d="M1386 997 c3 -10 9 -15 12 -12 3 3 0 11 -7 18 -10 9 -11 8 -5 -6z"/>
<path d="M2337 991 c-4 -17 -3 -21 5 -13 5 5 8 16 6 23 -3 8 -7 3 -11 -10z"/>
<path d="M3391 1005 c1 -19 18 -51 18 -35 0 8 -4 22 -9 30 -5 8 -9 11 -9 5z"/>
<path d="M1363 983 c4 -6 4 -13 0 -16 -5 -2 -2 -2 6 0 8 2 11 -2 8 -10 -3 -8
-1 -20 3 -28 5 -8 4 -19 -2 -26 -6 -7 -7 -13 -3 -13 4 0 1 -8 -6 -17 -7 -10
-9 -15 -5 -11 5 4 16 2 25 -4 9 -7 13 -8 9 -4 -4 5 -3 15 3 22 7 9 6 21 -4 41
-8 15 -12 33 -10 39 2 6 -4 17 -14 25 -9 8 -14 9 -10 2z m37 -92 c0 -6 -4 -12
-8 -15 -5 -3 -9 1 -9 9 0 8 4 15 9 15 4 0 8 -4 8 -9z"/>
<path d="M2056 975 c4 -8 8 -15 10 -15 2 0 4 7 4 15 0 8 -4 15 -10 15 -5 0 -7
-7 -4 -15z"/>
<path d="M3541 975 c0 -12 4 -26 10 -32 7 -7 9 -57 7 -142 -2 -72 -1 -127 0
-121 2 6 7 8 10 6 4 -2 6 56 4 130 -2 74 -7 134 -12 134 -5 0 -11 10 -13 23
-4 20 -4 20 -6 2z"/>
<path d="M1868 953 c7 -3 16 -2 19 1 4 3 -2 6 -13 5 -11 0 -14 -3 -6 -6z"/>
<path d="M3040 957 c0 -15 24 -57 33 -57 5 0 6 -8 2 -17 -4 -13 -3 -15 5 -7 8
8 5 21 -14 49 -14 21 -26 35 -26 32z"/>
<path d="M2980 945 c0 -5 5 -17 10 -25 5 -8 10 -10 10 -5 0 6 -5 17 -10 25 -5
8 -10 11 -10 5z"/>
<path d="M1562 920 c0 -14 2 -19 5 -12 2 6 2 18 0 25 -3 6 -5 1 -5 -13z"/>
<path d="M2372 915 c0 -16 2 -22 5 -12 2 9 2 23 0 30 -3 6 -5 -1 -5 -18z"/>
<path d="M2562 915 c0 -16 2 -22 5 -12 2 9 2 23 0 30 -3 6 -5 -1 -5 -18z"/>
<path d="M2595 805 c0 -74 3 -135 8 -135 4 0 7 -5 7 -11 0 -5 -4 -7 -10 -4 -5
3 -10 2 -10 -3 0 -5 19 -9 43 -9 23 0 33 2 22 4 -42 11 -45 20 -45 159 0 74
-3 134 -7 134 -5 0 -8 -61 -8 -135z"/>
<path d="M1345 920 c-3 -5 -1 -18 5 -27 9 -15 10 -14 4 6 -4 17 -3 21 6 16 9
-5 11 -4 6 3 -9 15 -13 15 -21 2z"/>
<path d="M4073 923 c-64 -12 17 -45 116 -47 36 0 117 0 179 2 101 2 112 4 112
20 0 17 -12 20 -107 25 -113 7 -263 7 -300 0z"/>
<path d="M2967 880 c3 -11 7 -20 9 -20 2 0 4 9 4 20 0 11 -4 20 -9 20 -5 0 -7
-9 -4 -20z"/>
<path d="M1425 879 c-10 -15 3 -25 16 -12 7 7 7 13 1 17 -6 3 -14 1 -17 -5z"/>
<path d="M2022 870 c-10 -16 -24 -20 -70 -21 l-57 -1 49 -9 c28 -4 53 -6 57
-3 4 2 13 -12 20 -31 10 -27 15 -32 22 -20 5 10 3 26 -6 44 -10 21 -12 32 -4
40 6 6 9 13 6 15 -3 3 -10 -4 -17 -14z m6 -45 c-3 -3 -9 2 -12 12 -6 14 -5 15
5 6 7 -7 10 -15 7 -18z"/>
<path d="M1493 847 c10 -8 14 -17 10 -19 -4 -3 -3 -4 4 -2 6 1 14 0 18 -4 4
-4 12 -7 18 -7 7 -1 11 -7 9 -14 -1 -7 2 -10 8 -6 8 5 8 11 -1 21 -6 7 -15 12
-19 9 -5 -3 -11 -1 -15 5 -3 5 -16 15 -28 20 -20 10 -21 10 -4 -3z"/>
<path d="M2545 850 c-3 -5 -15 -10 -26 -10 -10 0 -19 -4 -19 -8 0 -15 38 -7
49 10 6 10 9 18 7 18 -3 0 -8 -4 -11 -10z"/>
<path d="M3056 835 c9 -13 12 -30 8 -37 -5 -9 -4 -10 4 -3 14 13 5 52 -14 59
-11 4 -11 0 2 -19z"/>
<path d="M4500 850 c0 -5 5 -10 11 -10 5 0 7 5 4 10 -3 6 -8 10 -11 10 -2 0
-4 -4 -4 -10z"/>
<path d="M1405 840 c-4 -6 1 -7 11 -3 13 5 15 3 9 -7 -5 -9 -4 -11 4 -6 6 4 9
12 6 17 -8 12 -22 12 -30 -1z"/>
<path d="M2433 843 c-29 -2 -53 -7 -53 -11 0 -10 93 -2 105 9 5 5 7 8 5 7 -3
-1 -29 -3 -57 -5z"/>
<path d="M2947 833 c4 -11 3 -14 -5 -9 -8 5 -10 2 -6 -8 3 -9 10 -13 15 -10
12 7 11 44 -1 44 -5 0 -6 -7 -3 -17z"/>
<path d="M3104 807 c1 -20 6 -40 10 -44 5 -5 6 -2 1 6 -4 7 -3 16 3 20 7 4 6
14 -2 30 -12 22 -13 22 -12 -12z"/>
<path d="M1843 797 c-1 -30 -1 -30 9 -9 6 12 16 22 22 22 10 0 -13 20 -24 20
-3 0 -6 -15 -7 -33z"/>
<path d="M1440 816 c0 -9 30 -14 35 -6 4 6 -3 10 -14 10 -12 0 -21 -2 -21 -4z"/>
<path d="M4458 813 c6 -2 18 -2 25 0 6 3 1 5 -13 5 -14 0 -19 -2 -12 -5z"/>
<path d="M1517 771 c15 -22 30 -38 31 -36 7 6 -32 64 -46 70 -7 2 -1 -13 15
-34z"/>
<path d="M1577 769 c4 -13 8 -18 11 -10 2 7 -1 18 -6 23 -8 8 -9 4 -5 -13z"/>
<path d="M1877 744 c3 -27 7 -51 9 -53 8 -9 3 75 -5 88 -5 8 -7 -5 -4 -35z"/>
<path d="M2919 763 c-5 -13 -14 -23 -21 -23 -9 0 -8 -3 2 -10 11 -7 18 -3 28
15 8 17 22 25 40 26 15 0 38 2 52 3 14 2 29 -2 33 -8 6 -7 7 -6 4 4 -3 11 -19
15 -67 15 -56 0 -63 -2 -71 -22z"/>
<path d="M2357 773 c6 -5 14 -29 16 -53 l4 -45 -1 49 c-1 35 -5 51 -16 53 -10
3 -11 2 -3 -4z"/>
<path d="M3131 764 c0 -11 3 -14 6 -6 3 7 2 16 -1 19 -3 4 -6 -2 -5 -13z"/>
<path d="M4468 753 c6 -2 18 -2 25 0 6 3 1 5 -13 5 -14 0 -19 -2 -12 -5z"/>
<path d="M1350 724 c0 -14 4 -23 9 -20 5 3 7 15 4 26 -7 28 -13 25 -13 -6z"/>
<path d="M4398 743 c12 -2 30 -2 40 0 9 3 -1 5 -23 4 -22 0 -30 -2 -17 -4z"/>
<path d="M3105 730 c-3 -5 -1 -18 4 -27 6 -10 11 -13 11 -8 0 6 5 3 11 -5 9
-13 10 -13 6 0 -2 8 3 20 12 27 14 11 14 12 -1 13 -10 0 -18 -4 -18 -10 0 -5
-5 -10 -11 -10 -6 0 -9 7 -5 15 6 17 0 20 -9 5z"/>
<path d="M1575 722 c7 -14 -24 -44 -37 -36 -4 3 -5 -2 -2 -10 9 -23 19 -20 39
10 13 21 14 29 4 38 -9 8 -10 8 -4 -2z"/>
<path d="M2087 724 c-4 -4 -7 -14 -7 -23 0 -11 3 -12 11 -4 6 6 10 16 7 23 -2
6 -7 8 -11 4z"/>
<path d="M2332 710 c0 -14 2 -19 5 -12 2 6 2 18 0 25 -3 6 -5 1 -5 -13z"/>
<path d="M4520 718 c0 -4 20 -8 45 -8 25 0 45 5 45 10 0 7 -19 10 -45 9 -25
-2 -45 -6 -45 -11z"/>
<path d="M2872 690 c-7 -12 -10 -26 -6 -32 5 -8 2 -9 -9 -5 -10 3 -17 3 -17
-2 0 -5 18 -9 40 -9 22 0 40 3 40 9 0 5 -10 8 -21 6 -12 -1 -24 4 -26 11 -3 7
-1 11 4 10 4 -2 9 1 10 6 1 5 7 13 15 17 10 7 10 9 -2 9 -8 0 -21 -9 -28 -20z"/>
<path d="M1379 687 c13 -16 13 -20 0 -29 -12 -8 -12 -9 1 -5 8 2 23 0 33 -5
28 -14 18 5 -16 32 -19 15 -26 17 -18 7z"/>
<path d="M2036 669 c-26 -16 -27 -19 -12 -25 9 -4 27 -1 39 5 20 11 20 11 -8
7 l-30 -5 29 13 c16 7 25 15 20 18 -5 3 -22 -3 -38 -13z"/>
<path d="M2320 670 c0 -6 -10 -14 -22 -19 -19 -7 -16 -9 17 -8 22 0 32 2 23 4
-10 3 -15 10 -11 19 3 8 2 14 -1 14 -3 0 -6 -5 -6 -10z"/>
<path d="M3166 665 c5 -11 44 -28 50 -22 2 1 -10 10 -26 19 -21 12 -27 13 -24
3z"/>
<path d="M1340 661 c0 -6 4 -13 10 -16 6 -3 7 1 4 9 -7 18 -14 21 -14 7z"/>
<path d="M1507 655 c-5 -11 0 -15 16 -15 12 0 18 4 12 8 -5 4 -13 11 -16 15
-4 4 -9 1 -12 -8z"/>
<path d="M2377 657 c-3 -9 5 -13 27 -14 17 -1 24 1 16 4 -8 3 -20 10 -26 15
-7 5 -14 4 -17 -5z"/>
<path d="M2535 654 c-18 -14 -18 -14 2 -14 23 0 39 15 26 23 -5 3 -17 -1 -28
-9z"/>
<path d="M4454 656 c-18 -14 -17 -15 20 -31 21 -9 40 -15 41 -13 2 2 1 15 -2
31 -6 30 -28 35 -59 13z"/>
<path d="M1805 650 c-3 -5 -1 -10 4 -10 6 0 11 5 11 10 0 6 -2 10 -4 10 -3 0
-8 -4 -11 -10z"/>
<path d="M1870 647 c0 -9 118 -2 128 7 4 4 -23 6 -61 4 -37 -2 -67 -6 -67 -11z"/>
<path d="M3090 650 c-9 -6 -10 -10 -3 -10 6 0 15 5 18 10 8 12 4 12 -15 0z"/>
<path d="M3495 650 c-17 -8 -16 -8 8 -7 15 1 27 5 27 9 0 10 -9 9 -35 -2z"/>
<path d="M3580 650 c15 -10 58 -14 48 -5 -3 3 -18 8 -34 11 -22 3 -25 2 -14
-6z"/>
<path d="M1453 643 c9 -2 23 -2 30 0 6 3 -1 5 -18 5 -16 0 -22 -2 -12 -5z"/>
<path d="M4540 539 c0 -21 3 -39 8 -39 25 2 134 38 126 42 -9 6 -83 27 -116
33 -15 3 -18 -3 -18 -36z"/>
<path d="M270 460 c0 -5 9 -10 20 -10 19 0 20 -7 20 -140 0 -133 -1 -140 -20
-140 -11 0 -20 -4 -20 -10 0 -6 30 -10 70 -10 40 0 70 4 70 10 0 6 -9 10 -19
10 -27 0 -32 22 -30 138 2 124 6 142 30 142 11 0 19 5 19 10 0 6 -30 10 -70
10 -40 0 -70 -4 -70 -10z"/>
<path d="M525 460 c-3 -5 2 -10 12 -10 38 0 43 -19 43 -152 0 -121 -1 -128
-20 -128 -11 0 -20 -4 -20 -10 0 -6 27 -10 60 -10 58 0 84 15 38 22 -22 3 -23
8 -26 101 -1 53 1 97 6 97 4 0 48 -49 97 -109 50 -61 93 -110 98 -110 4 -1 7
59 7 133 0 148 3 166 31 166 10 0 19 5 19 10 0 6 -27 10 -60 10 -58 0 -84 -15
-37 -22 21 -3 22 -8 25 -95 1 -51 -1 -93 -6 -93 -5 0 -48 47 -96 105 -83 101
-88 105 -126 105 -21 0 -42 -4 -45 -10z"/>
<path d="M990 461 c0 -6 8 -11 19 -11 25 0 31 -26 31 -140 0 -114 -6 -140 -31
-140 -11 0 -19 -4 -19 -10 0 -14 169 -13 211 1 95 32 134 131 89 224 -30 63
-66 78 -192 83 -76 3 -108 1 -108 -7z m200 -34 c57 -28 77 -140 36 -202 -22
-33 -78 -57 -111 -49 l-25 6 0 129 0 129 38 0 c20 0 48 -6 62 -13z"/>
<path d="M1530 448 c-56 -39 -73 -70 -73 -136 0 -104 58 -166 157 -165 54 1
88 21 124 73 29 44 31 131 2 178 -44 71 -143 95 -210 50z m121 -8 c36 -20 51
-67 47 -148 -3 -66 -6 -77 -31 -98 -59 -51 -129 -19 -148 67 -28 121 48 223
132 179z"/>
<path d="M1885 460 c-3 -5 2 -10 13 -10 38 0 50 -29 51 -125 1 -120 -6 -155
-30 -155 -11 0 -19 -4 -19 -10 0 -6 27 -10 60 -10 33 0 60 4 60 10 0 6 -9 10
-19 10 -10 0 -22 7 -25 16 -9 24 -7 184 3 184 4 0 50 -50 101 -111 50 -61 95
-108 98 -105 3 4 4 55 3 115 -3 137 5 181 30 181 11 0 19 5 19 10 0 6 -27 10
-60 10 -58 0 -84 -15 -37 -22 21 -3 22 -8 25 -95 1 -52 -1 -93 -6 -93 -6 0
-47 47 -93 105 -82 102 -85 104 -126 105 -23 0 -45 -4 -48 -10z"/>
<path d="M2350 461 c0 -5 10 -11 23 -13 21 -3 22 -7 25 -136 l3 -132 -26 -10
c-14 -5 -25 -12 -25 -15 0 -3 56 -5 124 -5 l124 0 11 31 c18 52 13 61 -16 30
-27 -29 -61 -37 -130 -32 -9 1 -13 20 -13 61 l0 60 48 0 c41 0 51 -4 60 -22 9
-19 11 -14 11 37 1 57 0 58 -15 37 -12 -17 -25 -22 -60 -22 l-44 0 0 55 0 55
60 0 c55 0 61 -2 70 -25 14 -36 20 -31 20 15 l0 40 -125 0 c-70 0 -125 -4
-125 -9z"/>
<path d="M2807 450 c-21 -17 -27 -30 -27 -60 0 -42 11 -54 105 -113 55 -36 70
-71 39 -94 -43 -31 -124 5 -124 57 0 11 -4 20 -10 20 -5 0 -10 -25 -10 -56 0
-47 3 -55 16 -50 8 3 35 1 59 -5 96 -24 170 63 114 135 -11 15 -40 36 -62 47
-49 25 -87 57 -87 74 0 7 9 20 19 29 37 34 111 -4 111 -56 0 -10 5 -18 10 -18
6 0 10 24 10 53 l0 52 -68 3 c-57 2 -73 -1 -95 -18z"/>
<path d="M3140 461 c0 -5 9 -11 20 -14 19 -5 20 -14 20 -137 0 -123 -1 -132
-20 -137 -41 -11 -18 -23 45 -23 63 0 86 12 45 23 -20 5 -20 12 -18 139 3 129
4 133 26 136 50 7 18 22 -48 22 -38 0 -70 -4 -70 -9z"/>
<path d="M3541 428 c-86 -200 -106 -241 -122 -251 -31 -19 -22 -27 31 -27 28
0 50 5 50 10 0 6 -7 10 -15 10 -18 0 -18 7 -4 49 11 30 13 31 70 31 56 0 59
-2 75 -32 15 -29 15 -32 0 -43 -27 -20 -19 -25 44 -25 62 0 73 7 42 27 -10 6
-45 75 -77 152 -33 78 -63 141 -68 141 -4 0 -16 -19 -26 -42z m18 -146 c-23
-2 -43 -1 -45 1 -2 2 6 26 18 53 l21 49 23 -50 24 -50 -41 -3z"/>
<path d="M4560 374 c0 -16 3 -54 7 -84 5 -45 8 -50 14 -30 13 46 10 117 -6
130 -13 11 -15 8 -15 -16z"/>
</g>
</svg>
